<svg width="60" height="23" viewBox="0 0 60 23" fill="none" xmlns="http://www.w3.org/2000/svg">
<g clip-path="url(#clip0_90_106)">
<path d="M27.8671 19.507C27.8671 21.046 26.6195 22.2937 25.0804 22.2937H2.78671C1.24762 22.2937 0 21.046 0 19.507V8.36013C0 6.82104 1.24762 5.57343 2.78671 5.57343H19.5069C21.046 5.57343 22.2937 6.82104 22.2937 8.36013V13.9308C22.2937 15.4699 23.5413 16.7175 25.0804 16.7175C26.6195 16.7175 27.8671 17.9651 27.8671 19.5042V19.507Z" fill="black"/>
<path d="M29.5233 19.5069C29.5233 17.9678 30.7709 16.7202 32.31 16.7202C33.8491 16.7202 35.0967 17.9678 35.0967 19.5069C35.0967 21.046 33.8491 22.2936 32.31 22.2936C30.7709 22.2936 29.5233 21.046 29.5233 19.5069Z" fill="black"/>
<path d="M30.9725 19.7794C30.8227 19.7794 30.7001 19.6568 30.7001 19.507C30.7001 18.6189 31.4219 17.897 32.31 17.897C32.4598 17.897 32.5824 18.0196 32.5824 18.1694C32.5824 18.3193 32.4598 18.4418 32.31 18.4418C31.7216 18.4418 31.2449 18.9213 31.2449 19.507C31.2449 19.6568 31.1223 19.7794 30.9725 19.7794Z" fill="white"/>
<path d="M60 8.36012V19.5042C60 21.0433 58.7524 22.2909 57.2133 22.2909H40.4931C38.954 22.2909 37.7064 21.0433 37.7064 19.5042V2.78671C37.7064 1.24762 38.954 0 40.4931 0H46.0665C47.6056 0 48.8532 1.24762 48.8532 2.78671C48.8532 4.3258 50.1008 5.57341 51.6399 5.57341H57.2106C58.7497 5.57341 59.9973 6.82103 59.9973 8.36012H60Z" fill="black"/>
<path d="M18.8722 13.7265C16.4288 13.2116 14.5001 11.283 13.9853 8.83954C13.4704 11.283 11.5418 13.2116 9.09833 13.7265C11.5418 14.2413 13.4704 16.17 13.9853 18.6134C14.5001 16.17 16.4288 14.2413 18.8722 13.7265Z" fill="white"/>
<path d="M51.6426 8.83954C51.1278 11.283 49.1992 13.2116 46.7557 13.7265C49.1992 14.2413 51.1278 16.17 51.6426 18.6134C52.1575 16.17 54.0861 14.2413 56.5296 13.7265C54.0861 13.2116 52.1575 11.283 51.6426 8.83954Z" fill="white"/>
<path d="M51.6426 8.83954C51.1277 11.283 49.1991 13.2116 46.7556 13.7265C49.1991 14.2413 51.1277 16.17 51.6426 18.6134C52.1574 16.17 54.086 14.2413 56.5295 13.7265C54.086 13.2116 52.1574 11.283 51.6426 8.83954Z" fill="white"/>
<path d="M2.82215 19.0248C2.67233 19.0248 2.54974 18.9022 2.54974 18.7524V8.70063C2.54974 8.55081 2.67233 8.42822 2.82215 8.42822C2.97197 8.42822 3.09455 8.55081 3.09455 8.70063V18.7524C3.09455 18.9022 2.97197 19.0248 2.82215 19.0248Z" fill="white"/>
<path d="M40.5148 18.7251C40.365 18.7251 40.2424 18.6025 40.2424 18.4527V3.84089C40.2424 3.69106 40.365 3.56848 40.5148 3.56848C40.6647 3.56848 40.7872 3.69106 40.7872 3.84089V18.4554C40.7872 18.6053 40.6647 18.7278 40.5148 18.7278V18.7251Z" fill="white"/>
</g>
<defs>
<clipPath id="clip0_90_106">
<rect width="60" height="22.2937" fill="white"/>
</clipPath>
</defs>
</svg>
