<?xml version="1.0" encoding="UTF-8"?>
<svg id="Layer_2" data-name="Layer 2" xmlns="http://www.w3.org/2000/svg" viewBox="0 0 220.26 81.84">
  <g id="Layer_1-2" data-name="Layer 1">
    <g>
      <path d="M118.61,61.38c-5.65,0-10.23,4.58-10.23,10.23h0c0,5.65,4.58,10.23,10.23,10.23s10.23-4.58,10.23-10.23h0c0-5.65-4.58-10.23-10.23-10.23Zm0,6.32c-2.16,0-3.91,1.76-3.91,3.91,0,.55-.45,1-1,1s-1-.45-1-1c0-3.26,2.65-5.91,5.91-5.91,.55,0,1,.45,1,1s-.45,1-1,1Z" style="fill: #242424;"/>
      <path d="M92.07,61.38h0c-5.65,0-10.23-4.58-10.23-10.23V30.69c0-5.65-4.58-10.23-10.23-10.23H10.23C4.58,20.46,0,25.04,0,30.69v40.91c0,5.65,4.58,10.23,10.23,10.23H92.07c5.65,0,10.23-4.58,10.23-10.23h0c0-5.65-4.58-10.23-10.23-10.23Zm-80.71,7.47c0,.55-.45,1-1,1s-1-.45-1-1V31.94c0-.55,.45-1,1-1s1,.45,1,1v36.9Zm39.98-.51c-1.89-8.97-8.97-16.05-17.94-17.94,8.97-1.89,16.05-8.97,17.94-17.94,1.89,8.97,8.97,16.05,17.94,17.94-8.97,1.89-16.05,8.97-17.94,17.94Z" style="fill: #242424;"/>
      <path d="M210.03,20.46h-20.45c-5.65,0-10.23-4.58-10.23-10.23s-4.58-10.23-10.23-10.23h-20.46c-5.65,0-10.23,4.58-10.23,10.23v61.38c0,5.65,4.58,10.23,10.23,10.23h61.38c5.65,0,10.23-4.58,10.23-10.23V30.69c0-5.65-4.58-10.23-10.23-10.23Zm-60.3,47.28c0,.55-.45,1-1,1s-1-.45-1-1V14.1c0-.55,.45-1,1-1s1,.45,1,1v53.65Zm39.85,.59c-1.89-8.97-8.97-16.05-17.94-17.94,8.97-1.89,16.05-8.97,17.94-17.94,1.89,8.97,8.97,16.05,17.94,17.94-8.97,1.89-16.05,8.97-17.94,17.94Z" style="fill: #242424;"/>
    </g>
  </g>
</svg>