<svg width="200" height="12" viewBox="0 0 200 12" fill="none" xmlns="http://www.w3.org/2000/svg">
<g clip-path="url(#clip0_257_40)">
<path d="M194.225 11.3779H200V10.2336H195.464V5.88758H199.864V4.74335H195.464V1.45325H200V0.309014H194.225V11.3779ZM188.67 6.5327H189.569C190.031 6.5327 190.493 6.48856 190.958 6.40028C191.42 6.312 191.838 6.11168 192.214 5.7993C192.561 5.51409 192.822 5.16098 193.006 4.73316C193.189 4.30874 193.277 3.87074 193.277 3.41916C193.277 2.92004 193.172 2.44469 192.961 1.99651C192.751 1.54492 192.439 1.17822 192.024 0.89641C191.62 0.621387 191.179 0.455014 190.704 0.397293C190.225 0.339572 189.746 0.309014 189.264 0.309014H187.43V11.3779H188.67V6.5327ZM188.67 1.45325H189.128C189.491 1.45325 189.848 1.47023 190.191 1.50418C190.537 1.53813 190.846 1.61962 191.121 1.74525C191.396 1.87427 191.617 2.06441 191.787 2.32585C191.953 2.5839 192.038 2.94041 192.038 3.392C192.038 3.79265 191.97 4.122 191.831 4.37665C191.692 4.6313 191.508 4.83502 191.277 4.98442C191.046 5.13721 190.778 5.24247 190.473 5.30019C190.167 5.35791 189.841 5.38847 189.498 5.38847H188.67V1.45325ZM178.073 0.563665C177.37 0.862457 176.752 1.27329 176.226 1.79618C175.699 2.31906 175.282 2.93023 174.976 3.62288C174.671 4.31553 174.518 5.06251 174.518 5.85363C174.518 6.64475 174.671 7.39172 174.976 8.08438C175.282 8.78043 175.696 9.3848 176.226 9.8975C176.752 10.4102 177.367 10.8176 178.073 11.1164C178.776 11.4152 179.529 11.5646 180.324 11.5646C181.118 11.5646 181.872 11.4152 182.578 11.1164C183.281 10.8176 183.899 10.4136 184.425 9.8975C184.952 9.3848 185.369 8.78043 185.675 8.08438C185.981 7.38833 186.133 6.64475 186.133 5.85363C186.133 5.06251 185.981 4.31553 185.675 3.62288C185.369 2.92683 184.955 2.31906 184.425 1.79618C183.899 1.27329 183.285 0.862457 182.578 0.563665C181.876 0.264874 181.122 0.115479 180.324 0.115479C179.526 0.115479 178.776 0.264874 178.073 0.563665ZM182.12 1.61962C182.677 1.86069 183.159 2.18665 183.566 2.60427C183.974 3.01851 184.296 3.50744 184.534 4.06428C184.772 4.62112 184.887 5.2153 184.887 5.84005C184.887 6.46479 184.768 7.05558 184.534 7.60903C184.296 8.16247 183.974 8.64801 183.56 9.06224C183.145 9.47987 182.66 9.80922 182.103 10.0537C181.546 10.2981 180.952 10.4204 180.324 10.4204C179.696 10.4204 179.102 10.2981 178.545 10.0537C177.988 9.80922 177.502 9.47987 177.088 9.06224C176.674 8.64801 176.348 8.16247 176.114 7.60903C175.876 7.05558 175.761 6.46479 175.761 5.84005C175.761 5.2153 175.879 4.62112 176.114 4.06428C176.351 3.50744 176.674 3.01851 177.081 2.60427C177.489 2.18665 177.971 1.86069 178.528 1.61962C179.085 1.37855 179.682 1.25971 180.324 1.25971C180.966 1.25971 181.563 1.37855 182.12 1.61962ZM169.116 1.44985H169.486C169.859 1.44985 170.216 1.47023 170.555 1.50757C170.895 1.54832 171.197 1.6332 171.455 1.76562C171.717 1.89804 171.924 2.09837 172.083 2.3666C172.24 2.63483 172.321 2.99474 172.321 3.44632C172.321 3.8979 172.24 4.22386 172.077 4.48191C171.914 4.73995 171.7 4.94367 171.435 5.08288C171.17 5.22549 170.868 5.31716 170.535 5.3613C170.199 5.40544 169.856 5.42581 169.5 5.42581H169.116V1.45325V1.44985ZM169.116 6.51572H169.425L172.793 11.3745H174.314L170.769 6.41386C171.635 6.33577 172.318 6.0234 172.813 5.47335C173.309 4.9267 173.56 4.22046 173.56 3.35804C173.56 2.7333 173.448 2.2206 173.221 1.82334C172.993 1.42609 172.691 1.11711 172.311 0.88962C171.931 0.665526 171.499 0.50934 171.01 0.427851C170.525 0.346363 170.012 0.302223 169.483 0.302223H167.873V11.3779H169.112V6.51912L169.116 6.51572ZM159.313 0.309014H158.074V7.23893C158.074 7.55131 158.088 7.85349 158.112 8.1421C158.135 8.4307 158.186 8.70912 158.258 8.97056C158.332 9.2354 158.441 9.48666 158.583 9.72773C158.726 9.9688 158.92 10.2031 159.167 10.4408C159.541 10.8142 159.982 11.0927 160.488 11.2862C160.994 11.4763 161.514 11.5714 162.047 11.5714C162.607 11.5714 163.154 11.4628 163.68 11.2488C164.206 11.0349 164.661 10.7192 165.045 10.3083C165.262 10.0842 165.435 9.85336 165.571 9.61908C165.704 9.3848 165.802 9.14033 165.866 8.88568C165.931 8.63103 165.972 8.36959 165.992 8.10135C166.012 7.83312 166.023 7.54452 166.023 7.24233V0.309014H164.783V7.56149C164.783 7.78559 164.766 8.00968 164.732 8.23038C164.698 8.45108 164.644 8.66498 164.569 8.8687C164.495 9.07243 164.386 9.26596 164.237 9.44252C163.982 9.75489 163.653 9.99936 163.255 10.1691C162.858 10.3389 162.454 10.4272 162.05 10.4272C161.646 10.4272 161.222 10.3355 160.801 10.1555C160.383 9.97559 160.05 9.71415 159.802 9.37122C159.673 9.19466 159.575 9.00791 159.507 8.80759C159.439 8.60726 159.388 8.40015 159.361 8.18284C159.33 7.96894 159.317 7.75163 159.317 7.53773V0.309014H159.313ZM151.025 11.3779H156.801V10.2336H152.265V5.88758H156.665V4.74335H152.265V1.45325H156.801V0.309014H151.025V11.3779Z" fill="#F6F5EC"/>
<path d="M139.668 0.308977V11.3778H146.034V8.93997H142.564V0.308977H139.668ZM126.287 8.14206C126.592 8.85169 127.017 9.46965 127.557 9.99932C128.097 10.529 128.745 10.9398 129.499 11.2386C130.253 11.5374 131.081 11.6868 131.988 11.6868C132.894 11.6868 133.712 11.5374 134.47 11.2386C135.227 10.9398 135.879 10.5256 136.425 9.99932C136.972 9.46965 137.396 8.85169 137.702 8.14206C138.008 7.43243 138.16 6.66508 138.16 5.84341C138.16 5.02173 138.008 4.25438 137.702 3.54475C137.396 2.83512 136.972 2.21717 136.425 1.68749C135.879 1.15782 135.227 0.746978 134.47 0.448187C133.712 0.149396 132.884 0 131.988 0C131.091 0 130.253 0.149396 129.499 0.448187C128.745 0.746978 128.097 1.16121 127.557 1.68749C127.013 2.21717 126.592 2.83512 126.287 3.54475C125.981 4.25438 125.828 5.02173 125.828 5.84341C125.828 6.66508 125.981 7.43243 126.287 8.14206ZM129.108 4.62447C129.275 4.25098 129.502 3.92843 129.787 3.6568C130.073 3.38177 130.405 3.17126 130.786 3.01847C131.166 2.86568 131.567 2.79098 131.991 2.79098C132.415 2.79098 132.816 2.86568 133.196 3.01847C133.577 3.17126 133.909 3.38517 134.201 3.6568C134.493 3.93182 134.721 4.25438 134.887 4.62447C135.054 4.99796 135.139 5.40201 135.139 5.84341C135.139 6.2848 135.054 6.68885 134.887 7.06234C134.721 7.43583 134.49 7.75839 134.201 8.03001C133.909 8.30504 133.577 8.51555 133.196 8.66834C132.816 8.82113 132.415 8.89583 131.991 8.89583C131.567 8.89583 131.166 8.82113 130.786 8.66834C130.405 8.51555 130.073 8.30504 129.787 8.03001C129.502 7.75499 129.275 7.43243 129.108 7.06234C128.942 6.69225 128.857 6.2848 128.857 5.84341C128.857 5.40201 128.942 4.99796 129.108 4.62447ZM113.028 8.14206C113.334 8.85169 113.758 9.46965 114.298 9.99932C114.838 10.529 115.486 10.9398 116.24 11.2386C116.994 11.5374 117.822 11.6868 118.729 11.6868C119.635 11.6868 120.45 11.5374 121.211 11.2386C121.968 10.9398 122.62 10.5256 123.167 9.99932C123.713 9.46965 124.138 8.85169 124.443 8.14206C124.749 7.43243 124.902 6.66508 124.902 5.84341C124.902 5.02173 124.749 4.25438 124.443 3.54475C124.138 2.83512 123.713 2.21717 123.167 1.68749C122.62 1.15782 121.968 0.746978 121.211 0.448187C120.454 0.149396 119.625 0 118.729 0C117.832 0 116.994 0.149396 116.24 0.448187C115.486 0.746978 114.838 1.16121 114.298 1.68749C113.755 2.21717 113.334 2.83512 113.028 3.54475C112.722 4.25438 112.57 5.02173 112.57 5.84341C112.57 6.66508 112.722 7.43243 113.028 8.14206ZM115.85 4.62447C116.016 4.25098 116.243 3.92843 116.529 3.6568C116.814 3.38177 117.147 3.17126 117.527 3.01847C117.907 2.86568 118.308 2.79098 118.732 2.79098C119.157 2.79098 119.557 2.86568 119.938 3.01847C120.318 3.17126 120.651 3.38517 120.943 3.6568C121.235 3.93182 121.462 4.25438 121.628 4.62447C121.795 4.99796 121.88 5.40201 121.88 5.84341C121.88 6.2848 121.795 6.68885 121.628 7.06234C121.462 7.43583 121.231 7.75839 120.943 8.03001C120.651 8.30504 120.318 8.51555 119.938 8.66834C119.557 8.82113 119.157 8.89583 118.732 8.89583C118.308 8.89583 117.907 8.82113 117.527 8.66834C117.147 8.51555 116.814 8.30504 116.529 8.03001C116.243 7.75499 116.016 7.43243 115.85 7.06234C115.683 6.69225 115.598 6.2848 115.598 5.84341C115.598 5.40201 115.683 4.99796 115.85 4.62447ZM103.996 0.308977H101.1V11.3778H103.996V6.81108H108.176V11.3778H111.072V0.308977H108.176V4.58033H103.996V0.308977ZM99.3447 0.573815C98.8727 0.376884 98.4212 0.23428 97.9933 0.142605C97.5655 0.0509303 97.1309 0.00339536 96.6861 0.00339536C95.9086 0.00339536 95.165 0.146 94.4554 0.434605C93.7458 0.723211 93.1244 1.12386 92.5879 1.63996C92.0515 2.15266 91.6237 2.76382 91.3011 3.47345C90.9819 4.18308 90.8223 4.96401 90.8223 5.81624C90.8223 6.66848 90.9853 7.45281 91.3113 8.17262C91.6372 8.89244 92.0684 9.51379 92.6049 10.0367C93.1414 10.5596 93.7627 10.967 94.4656 11.2556C95.1684 11.5442 95.9052 11.6902 96.6725 11.6902C97.046 11.6902 97.4263 11.6529 97.81 11.5816C98.1937 11.5069 98.6079 11.3914 99.0493 11.2352L99.3447 11.1334V7.72783C98.6045 8.51216 97.7726 8.90262 96.8491 8.90262C96.4247 8.90262 96.0308 8.82453 95.6675 8.66834C95.3042 8.51216 94.9851 8.29485 94.7134 8.02322C94.4418 7.7482 94.2313 7.42564 94.0785 7.05555C93.9257 6.68206 93.851 6.27801 93.851 5.83662C93.851 5.39522 93.9257 5.00475 94.0785 4.63126C94.2313 4.25778 94.4418 3.93861 94.7066 3.67038C94.9715 3.40215 95.2906 3.18824 95.6607 3.03205C96.0308 2.87587 96.4315 2.79777 96.8661 2.79777C97.8507 2.79777 98.6792 3.20522 99.3481 4.01671V0.573815H99.3447ZM89.5287 0.896374C88.9787 0.604373 88.4015 0.38028 87.8005 0.227489C87.1995 0.0746978 86.6223 0 86.0723 0C85.4815 0 84.9484 0.0882792 84.4696 0.264838C83.9909 0.441396 83.5869 0.689257 83.2575 1.00503C82.9282 1.32419 82.6701 1.70447 82.4902 2.14926C82.3068 2.59405 82.2185 3.09317 82.2185 3.63982C82.2185 4.18647 82.3034 4.64145 82.4766 4.99796C82.6497 5.35448 82.8738 5.64987 83.1556 5.88755C83.4375 6.12183 83.7566 6.31197 84.1165 6.45118C84.4764 6.59378 84.8431 6.7228 85.2166 6.84164C85.5324 6.95029 85.8006 7.04876 86.0213 7.13364C86.242 7.22192 86.422 7.31699 86.5612 7.41885C86.7004 7.52071 86.7989 7.63276 86.8566 7.75499C86.9143 7.87722 86.9449 8.01983 86.9449 8.1896C86.9449 8.46462 86.8294 8.70909 86.5985 8.92299C86.3676 9.1369 86.0145 9.24555 85.5426 9.24555C85.1283 9.24555 84.7107 9.15388 84.2863 8.96713C83.8619 8.78039 83.4341 8.49857 83.0029 8.1149L81.7635 10.4339C82.9655 11.2658 84.2693 11.68 85.6784 11.68C86.3575 11.68 86.9652 11.5883 87.5017 11.4084C88.0382 11.2284 88.4897 10.9738 88.8598 10.6444C89.2299 10.3151 89.5084 9.92123 89.7019 9.46286C89.8954 9.00109 89.9905 8.48839 89.9905 7.92136C89.9905 7.07932 89.7698 6.39685 89.3318 5.87396C88.8938 5.35108 88.2011 4.93345 87.2572 4.61768C87.0196 4.53959 86.7819 4.46489 86.5408 4.39699C86.2997 4.32908 86.0824 4.24759 85.8923 4.15591C85.6988 4.06424 85.546 3.95219 85.4271 3.82657C85.3083 3.70094 85.2506 3.53796 85.2506 3.34103C85.2506 3.05922 85.3694 2.82833 85.6037 2.65177C85.8414 2.47521 86.1469 2.38693 86.5204 2.38693C86.8158 2.38693 87.1214 2.44805 87.4372 2.57028C87.7529 2.69252 88.0687 2.88266 88.3845 3.13731L89.5355 0.889583L89.5287 0.896374ZM67.1058 11.3778H71.3907C72.1581 11.3778 72.8745 11.225 73.54 10.9229C74.2055 10.6207 74.7861 10.2132 75.2818 9.70393C75.7775 9.19462 76.168 8.60383 76.4498 7.93495C76.7316 7.26606 76.8708 6.56662 76.8708 5.84341C76.8708 5.1202 76.7282 4.40717 76.443 3.73829C76.1578 3.0694 75.7673 2.482 75.2682 1.9761C74.7691 1.47358 74.1885 1.06954 73.5264 0.763955C72.8609 0.461768 72.1513 0.308977 71.3907 0.308977H67.1058V11.3778ZM70.002 2.74684H70.6675C71.1599 2.74684 71.6046 2.82494 71.9951 2.98112C72.389 3.13731 72.7217 3.35461 72.9933 3.62624C73.265 3.90126 73.4721 4.22722 73.6215 4.61089C73.7675 4.99117 73.8422 5.40541 73.8422 5.84341C73.8422 6.28141 73.7709 6.70583 73.6283 7.08271C73.4857 7.4596 73.2786 7.78555 73.0069 8.06057C72.7353 8.3356 72.4025 8.5495 72.0087 8.70569C71.6148 8.86188 71.1666 8.93997 70.6641 8.93997H69.9986V2.74345L70.002 2.74684ZM63.1298 11.3778H66.2162L61.9788 0.308977H58.8177L54.5769 11.3778H57.6633L58.3288 9.45607H62.4643L63.1298 11.3778ZM59.0962 7.26606L60.3966 3.5821L61.697 7.26606H59.0962ZM46.8661 11.3778H49.7623V0.308977H46.8661V11.3778ZM34.3542 11.3778L35.3151 5.00475L37.8107 11.3778H38.9617L41.5897 5.00475L42.5506 11.3778H45.4299L43.542 0.308977H40.6764L38.4592 6.21011L36.2318 0.308977H33.3662L31.4749 11.3778H34.3542ZM27.7367 11.3778H30.823L26.5856 0.308977H23.4246L19.1838 11.3778H22.2701L22.9356 9.45607H27.0712L27.7367 11.3778ZM23.703 7.26606L25.0034 3.5821L26.3038 7.26606H23.703ZM15.3911 11.3778H18.2874V0.308977H15.3911V11.3778ZM2.87926 11.3778L3.84015 5.00475L6.33573 11.3778H7.48676L10.1148 5.00475L11.0756 11.3778H13.9549L12.0671 0.308977H9.20141L6.98425 6.21011L4.75689 0.308977H1.89121L0 11.3778H2.87926Z" fill="#F6F5EC"/>
</g>
<defs>
<clipPath id="clip0_257_40">
<rect width="200" height="11.6868" fill="white"/>
</clipPath>
</defs>
</svg>
